<svg width="22" height="23" viewBox="0 0 22 23" fill="none" xmlns="http://www.w3.org/2000/svg">
<path d="M4.4375 0.5H6.3125V1.4375H15.6875V0.5H17.5625V1.4375H21.3125V22.0625H0.6875V1.4375H4.4375V0.5ZM2.5625 3.3125V5.1875H19.4375V3.3125H17.5625V4.25H15.6875V3.3125H6.3125V4.25H4.4375V3.3125H2.5625ZM2.5625 7.0625V20.1875H19.4375V7.0625H2.5625ZM8.1875 8.9375H10.0625V10.8125H8.1875V8.9375ZM11.9375 8.9375H13.8125V10.8125H11.9375V8.9375ZM15.6875 8.9375H17.5625V10.8125H15.6875V8.9375ZM4.4375 12.6875H6.3125V14.5625H4.4375V12.6875ZM8.1875 12.6875H10.0625V14.5625H8.1875V12.6875ZM11.9375 12.6875H13.8125V14.5625H11.9375V12.6875ZM15.6875 12.6875H17.5625V14.5625H15.6875V12.6875ZM4.4375 16.4375H6.3125V18.3125H4.4375V16.4375ZM8.1875 16.4375H10.0625V18.3125H8.1875V16.4375ZM11.9375 16.4375H13.8125V18.3125H11.9375V16.4375Z" fill="#18A8B0"/>
</svg>
